<mxfile host="Electron" modified="2023-11-23T16:54:56.278Z" agent="Mozilla/5.0 (Windows NT 10.0; Win64; x64) AppleWebKit/537.36 (KHTML, like Gecko) draw.io/21.6.8 Chrome/114.0.5735.289 Electron/25.5.0 Safari/537.36" etag="KMcTvPz-xFTVf2leRnqb" version="21.6.8" type="device">
  <diagram name="Page-1" id="WWlFvg7DKn2M0_3CpuQ5">
    <mxGraphModel dx="956" dy="589" grid="1" gridSize="10" guides="1" tooltips="1" connect="1" arrows="1" fold="1" page="1" pageScale="1" pageWidth="827" pageHeight="1169" math="0" shadow="0">
      <root>
        <mxCell id="0" />
        <mxCell id="1" parent="0" />
        <mxCell id="nOWR5_Gk9yyT9tmzBJDm-1" value="User" style="rounded=0;whiteSpace=wrap;html=1;" parent="1" vertex="1">
          <mxGeometry x="150" y="160" width="120" height="60" as="geometry" />
        </mxCell>
        <mxCell id="nOWR5_Gk9yyT9tmzBJDm-2" value="System" style="rounded=0;whiteSpace=wrap;html=1;" parent="1" vertex="1">
          <mxGeometry x="414" y="160" width="120" height="60" as="geometry" />
        </mxCell>
        <mxCell id="nOWR5_Gk9yyT9tmzBJDm-3" value="Database" style="rounded=0;whiteSpace=wrap;html=1;" parent="1" vertex="1">
          <mxGeometry x="620" y="160" width="120" height="60" as="geometry" />
        </mxCell>
        <mxCell id="nOWR5_Gk9yyT9tmzBJDm-4" value="Marketplace" style="rounded=0;whiteSpace=wrap;html=1;" parent="1" vertex="1">
          <mxGeometry x="780" y="160" width="120" height="60" as="geometry" />
        </mxCell>
        <mxCell id="nOWR5_Gk9yyT9tmzBJDm-5" value="Cloud Storage" style="rounded=0;whiteSpace=wrap;html=1;" parent="1" vertex="1">
          <mxGeometry x="930" y="160" width="120" height="60" as="geometry" />
        </mxCell>
        <mxCell id="nOWR5_Gk9yyT9tmzBJDm-7" value="End" style="rounded=0;whiteSpace=wrap;html=1;" parent="1" vertex="1">
          <mxGeometry x="110" y="600" width="1110" height="60" as="geometry" />
        </mxCell>
        <mxCell id="nOWR5_Gk9yyT9tmzBJDm-8" value="Create Recipe" style="ellipse;whiteSpace=wrap;html=1;" parent="1" vertex="1">
          <mxGeometry x="640" y="10" width="120" height="80" as="geometry" />
        </mxCell>
        <mxCell id="nOWR5_Gk9yyT9tmzBJDm-9" value="" style="endArrow=none;dashed=1;html=1;rounded=0;entryX=0.5;entryY=1;entryDx=0;entryDy=0;exitX=0.09;exitY=0;exitDx=0;exitDy=0;exitPerimeter=0;" parent="1" source="nOWR5_Gk9yyT9tmzBJDm-7" target="nOWR5_Gk9yyT9tmzBJDm-1" edge="1">
          <mxGeometry width="50" height="50" relative="1" as="geometry">
            <mxPoint x="350" y="350" as="sourcePoint" />
            <mxPoint x="400" y="300" as="targetPoint" />
          </mxGeometry>
        </mxCell>
        <mxCell id="nOWR5_Gk9yyT9tmzBJDm-10" value="" style="endArrow=none;dashed=1;html=1;rounded=0;entryX=0.5;entryY=1;entryDx=0;entryDy=0;exitX=0.09;exitY=0;exitDx=0;exitDy=0;exitPerimeter=0;" parent="1" edge="1">
          <mxGeometry width="50" height="50" relative="1" as="geometry">
            <mxPoint x="200" y="600" as="sourcePoint" />
            <mxPoint x="200" y="220" as="targetPoint" />
            <Array as="points">
              <mxPoint x="200" y="410" />
            </Array>
          </mxGeometry>
        </mxCell>
        <mxCell id="nOWR5_Gk9yyT9tmzBJDm-11" value="" style="endArrow=none;dashed=1;html=1;rounded=0;entryX=0.5;entryY=1;entryDx=0;entryDy=0;exitX=0.09;exitY=0;exitDx=0;exitDy=0;exitPerimeter=0;" parent="1" edge="1">
          <mxGeometry width="50" height="50" relative="1" as="geometry">
            <mxPoint x="484" y="600" as="sourcePoint" />
            <mxPoint x="484" y="220" as="targetPoint" />
          </mxGeometry>
        </mxCell>
        <mxCell id="nOWR5_Gk9yyT9tmzBJDm-12" value="" style="endArrow=none;dashed=1;html=1;rounded=0;entryX=0.5;entryY=1;entryDx=0;entryDy=0;exitX=0.09;exitY=0;exitDx=0;exitDy=0;exitPerimeter=0;" parent="1" edge="1">
          <mxGeometry width="50" height="50" relative="1" as="geometry">
            <mxPoint x="474" y="600" as="sourcePoint" />
            <mxPoint x="474" y="220" as="targetPoint" />
            <Array as="points">
              <mxPoint x="474" y="410" />
            </Array>
          </mxGeometry>
        </mxCell>
        <mxCell id="nOWR5_Gk9yyT9tmzBJDm-13" value="" style="endArrow=none;dashed=1;html=1;rounded=0;entryX=0.5;entryY=1;entryDx=0;entryDy=0;exitX=0.09;exitY=0;exitDx=0;exitDy=0;exitPerimeter=0;" parent="1" edge="1">
          <mxGeometry width="50" height="50" relative="1" as="geometry">
            <mxPoint x="684.5" y="600" as="sourcePoint" />
            <mxPoint x="684.5" y="220" as="targetPoint" />
          </mxGeometry>
        </mxCell>
        <mxCell id="nOWR5_Gk9yyT9tmzBJDm-14" value="" style="endArrow=none;dashed=1;html=1;rounded=0;entryX=0.5;entryY=1;entryDx=0;entryDy=0;exitX=0.09;exitY=0;exitDx=0;exitDy=0;exitPerimeter=0;" parent="1" edge="1">
          <mxGeometry width="50" height="50" relative="1" as="geometry">
            <mxPoint x="674.5" y="600" as="sourcePoint" />
            <mxPoint x="674.5" y="220" as="targetPoint" />
            <Array as="points">
              <mxPoint x="674.5" y="410" />
            </Array>
          </mxGeometry>
        </mxCell>
        <mxCell id="nOWR5_Gk9yyT9tmzBJDm-15" value="" style="endArrow=none;dashed=1;html=1;rounded=0;entryX=0.5;entryY=1;entryDx=0;entryDy=0;exitX=0.09;exitY=0;exitDx=0;exitDy=0;exitPerimeter=0;" parent="1" edge="1">
          <mxGeometry width="50" height="50" relative="1" as="geometry">
            <mxPoint x="844.5" y="600" as="sourcePoint" />
            <mxPoint x="844.5" y="220" as="targetPoint" />
          </mxGeometry>
        </mxCell>
        <mxCell id="nOWR5_Gk9yyT9tmzBJDm-16" value="" style="endArrow=none;dashed=1;html=1;rounded=0;entryX=0.5;entryY=1;entryDx=0;entryDy=0;exitX=0.09;exitY=0;exitDx=0;exitDy=0;exitPerimeter=0;" parent="1" edge="1">
          <mxGeometry width="50" height="50" relative="1" as="geometry">
            <mxPoint x="834.5" y="600" as="sourcePoint" />
            <mxPoint x="834.5" y="220" as="targetPoint" />
            <Array as="points">
              <mxPoint x="834.5" y="410" />
            </Array>
          </mxGeometry>
        </mxCell>
        <mxCell id="nOWR5_Gk9yyT9tmzBJDm-17" value="" style="endArrow=none;dashed=1;html=1;rounded=0;entryX=0.5;entryY=1;entryDx=0;entryDy=0;exitX=0.09;exitY=0;exitDx=0;exitDy=0;exitPerimeter=0;" parent="1" edge="1">
          <mxGeometry width="50" height="50" relative="1" as="geometry">
            <mxPoint x="994.5" y="600" as="sourcePoint" />
            <mxPoint x="994.5" y="220" as="targetPoint" />
          </mxGeometry>
        </mxCell>
        <mxCell id="nOWR5_Gk9yyT9tmzBJDm-18" value="" style="endArrow=none;dashed=1;html=1;rounded=0;entryX=0.5;entryY=1;entryDx=0;entryDy=0;exitX=0.09;exitY=0;exitDx=0;exitDy=0;exitPerimeter=0;" parent="1" edge="1">
          <mxGeometry width="50" height="50" relative="1" as="geometry">
            <mxPoint x="984.5" y="600" as="sourcePoint" />
            <mxPoint x="984.5" y="220" as="targetPoint" />
            <Array as="points">
              <mxPoint x="984.5" y="410" />
            </Array>
          </mxGeometry>
        </mxCell>
        <mxCell id="nOWR5_Gk9yyT9tmzBJDm-21" value="" style="endArrow=classic;html=1;rounded=0;" parent="1" edge="1">
          <mxGeometry width="50" height="50" relative="1" as="geometry">
            <mxPoint x="210" y="270" as="sourcePoint" />
            <mxPoint x="470" y="270" as="targetPoint" />
          </mxGeometry>
        </mxCell>
        <mxCell id="nOWR5_Gk9yyT9tmzBJDm-22" value="&lt;font style=&quot;font-size: 10px;&quot;&gt;Clicks &quot;Create Recipe&quot; on Home Page&lt;/font&gt;" style="text;html=1;align=center;verticalAlign=middle;resizable=0;points=[];autosize=1;strokeColor=none;fillColor=none;" parent="1" vertex="1">
          <mxGeometry x="240" y="240" width="190" height="30" as="geometry" />
        </mxCell>
        <mxCell id="nOWR5_Gk9yyT9tmzBJDm-23" value="" style="endArrow=classic;html=1;rounded=0;" parent="1" edge="1">
          <mxGeometry width="50" height="50" relative="1" as="geometry">
            <mxPoint x="470" y="320" as="sourcePoint" />
            <mxPoint x="210" y="320" as="targetPoint" />
          </mxGeometry>
        </mxCell>
        <mxCell id="nOWR5_Gk9yyT9tmzBJDm-24" value="&lt;div style=&quot;font-size: 10px;&quot;&gt;&lt;font style=&quot;font-size: 10px;&quot;&gt;&amp;nbsp;Directs to recipe creation page&lt;/font&gt;&lt;/div&gt;&lt;div style=&quot;font-size: 10px;&quot;&gt;&lt;br style=&quot;font-size: 10px;&quot;&gt;&lt;/div&gt;" style="text;html=1;strokeColor=none;fillColor=none;align=center;verticalAlign=middle;whiteSpace=wrap;rounded=0;fontSize=10;" parent="1" vertex="1">
          <mxGeometry x="260" y="290" width="170" height="30" as="geometry" />
        </mxCell>
        <mxCell id="nOWR5_Gk9yyT9tmzBJDm-25" value="" style="endArrow=classic;html=1;rounded=0;" parent="1" edge="1">
          <mxGeometry width="50" height="50" relative="1" as="geometry">
            <mxPoint x="210" y="370" as="sourcePoint" />
            <mxPoint x="470" y="370" as="targetPoint" />
          </mxGeometry>
        </mxCell>
        <mxCell id="nOWR5_Gk9yyT9tmzBJDm-26" value="&lt;div style=&quot;&quot;&gt;Enters recipe information . Then Submits&lt;br&gt;&lt;/div&gt;" style="text;html=1;strokeColor=none;fillColor=none;align=center;verticalAlign=middle;whiteSpace=wrap;rounded=0;fontSize=10;" parent="1" vertex="1">
          <mxGeometry x="260" y="340" width="170" height="30" as="geometry" />
        </mxCell>
        <mxCell id="nOWR5_Gk9yyT9tmzBJDm-27" value="" style="endArrow=classic;html=1;rounded=0;" parent="1" edge="1">
          <mxGeometry width="50" height="50" relative="1" as="geometry">
            <mxPoint x="485" y="490" as="sourcePoint" />
            <mxPoint x="665" y="490" as="targetPoint" />
          </mxGeometry>
        </mxCell>
        <mxCell id="nOWR5_Gk9yyT9tmzBJDm-28" value="&lt;div style=&quot;&quot;&gt;Saves recipe information&lt;br&gt;&lt;/div&gt;" style="text;html=1;strokeColor=none;fillColor=none;align=center;verticalAlign=middle;whiteSpace=wrap;rounded=0;fontSize=10;" parent="1" vertex="1">
          <mxGeometry x="490" y="460" width="170" height="30" as="geometry" />
        </mxCell>
        <mxCell id="nOWR5_Gk9yyT9tmzBJDm-29" value="" style="endArrow=classic;html=1;rounded=0;" parent="1" edge="1">
          <mxGeometry width="50" height="50" relative="1" as="geometry">
            <mxPoint x="490" y="370" as="sourcePoint" />
            <mxPoint x="830" y="370" as="targetPoint" />
          </mxGeometry>
        </mxCell>
        <mxCell id="nOWR5_Gk9yyT9tmzBJDm-30" value="&lt;div style=&quot;&quot;&gt;Request Ingredient Prices&lt;/div&gt;" style="text;html=1;strokeColor=none;fillColor=none;align=center;verticalAlign=middle;whiteSpace=wrap;rounded=0;fontSize=10;" parent="1" vertex="1">
          <mxGeometry x="660" y="340" width="170" height="30" as="geometry" />
        </mxCell>
        <mxCell id="nOWR5_Gk9yyT9tmzBJDm-31" value="" style="endArrow=classic;html=1;rounded=0;" parent="1" edge="1">
          <mxGeometry width="50" height="50" relative="1" as="geometry">
            <mxPoint x="830" y="400" as="sourcePoint" />
            <mxPoint x="480" y="400" as="targetPoint" />
          </mxGeometry>
        </mxCell>
        <mxCell id="nOWR5_Gk9yyT9tmzBJDm-32" value="&lt;div style=&quot;&quot;&gt;Recieves Ingredient Prices&lt;/div&gt;" style="text;html=1;strokeColor=none;fillColor=none;align=center;verticalAlign=middle;whiteSpace=wrap;rounded=0;fontSize=10;" parent="1" vertex="1">
          <mxGeometry x="490" y="380" width="170" height="30" as="geometry" />
        </mxCell>
        <mxCell id="nOWR5_Gk9yyT9tmzBJDm-33" value="&lt;div style=&quot;&quot;&gt;&lt;b&gt;{Calculates total price}&lt;/b&gt;&lt;br&gt;&lt;/div&gt;" style="text;html=1;strokeColor=none;fillColor=none;align=center;verticalAlign=middle;whiteSpace=wrap;rounded=0;fontSize=10;" parent="1" vertex="1">
          <mxGeometry x="460" y="410" width="170" height="30" as="geometry" />
        </mxCell>
        <mxCell id="nOWR5_Gk9yyT9tmzBJDm-34" value="" style="endArrow=classic;html=1;rounded=0;exitX=0;exitY=1;exitDx=0;exitDy=0;" parent="1" source="nOWR5_Gk9yyT9tmzBJDm-28" edge="1">
          <mxGeometry width="50" height="50" relative="1" as="geometry">
            <mxPoint x="610" y="400" as="sourcePoint" />
            <mxPoint x="980" y="490" as="targetPoint" />
          </mxGeometry>
        </mxCell>
        <mxCell id="nOWR5_Gk9yyT9tmzBJDm-35" value="&lt;div style=&quot;&quot;&gt;Stores Recipe Images&lt;/div&gt;" style="text;html=1;strokeColor=none;fillColor=none;align=center;verticalAlign=middle;whiteSpace=wrap;rounded=0;fontSize=10;" parent="1" vertex="1">
          <mxGeometry x="840" y="460" width="170" height="30" as="geometry" />
        </mxCell>
        <mxCell id="nOWR5_Gk9yyT9tmzBJDm-36" value="" style="endArrow=classic;html=1;rounded=0;" parent="1" edge="1">
          <mxGeometry width="50" height="50" relative="1" as="geometry">
            <mxPoint x="980" y="560" as="sourcePoint" />
            <mxPoint x="210" y="560" as="targetPoint" />
          </mxGeometry>
        </mxCell>
        <mxCell id="nOWR5_Gk9yyT9tmzBJDm-37" value="&lt;div style=&quot;&quot;&gt;Shows Recipe on Home Page&lt;/div&gt;" style="text;html=1;strokeColor=none;fillColor=none;align=center;verticalAlign=middle;whiteSpace=wrap;rounded=0;fontSize=10;" parent="1" vertex="1">
          <mxGeometry x="210" y="520" width="170" height="30" as="geometry" />
        </mxCell>
        <mxCell id="RiDar5Y2dPXjYELt4WzI-1" value="&lt;div style=&quot;&quot;&gt;&lt;b&gt;{Validates information}&lt;/b&gt;&lt;br&gt;&lt;/div&gt;" style="text;html=1;strokeColor=none;fillColor=none;align=center;verticalAlign=middle;whiteSpace=wrap;rounded=0;fontSize=10;" vertex="1" parent="1">
          <mxGeometry x="460" y="440" width="170" height="30" as="geometry" />
        </mxCell>
      </root>
    </mxGraphModel>
  </diagram>
</mxfile>
